<?xml version="1.0" encoding="UTF-8"?>
<svg enable-background="new 0 0 1543 768" viewBox="0 0 1404.0997 363.51276" xmlns="http://www.w3.org/2000/svg">
 <g transform="translate(-71.75,-238)" fill="none" stroke="#333" stroke-width="12">
  <path d="m197.47 244c-2.7614 0-5 2.3672-5 5.3125s2.2386 5.3438 5 5.3438 5-2.3984 5-5.3438-2.2386-5.3125-5-5.3125zm-0.0312 11c-0.482 4-0.658 7.334-0.75 11-6e-3 0.608-0.0213 1.2045-0.0312 1.8125-0.642-1e-3 -1.2872-5e-3 -1.9062 0-23.1 0.215-57 5.1562-57 5.1562-6.923-6e-3 -12.649 5.6-12.656 12.5l2.0312 55.188c-6e-3 6.9 3.6072 12.493 10.531 12.5 0 0 21.262 2.9358 38.594 5.0938v21.25c-14.151 2.423-28.873 5.6352-37.531 9.0312-3.146-2.855-7.2125-4.5898-11.688-4.5938-9.941-9e-3 -18.021 8.4758-18.031 18.969-3e-3 3.894 1.1302 7.5162 3.0312 10.531-1.214 1.638-2.1418 3.6002-2.5938 5.7812l-8.4062 40.594c-0.945 4.557 0.2865 9.0152 2.9375 12.031-12.031-0.088-22.846 8.5652-25.219 21.031l17.938 3.4375c0.547-4.05 3.64-7.4942 7.875-8.2812 5.281-0.982 10.361 2.4992 11.344 7.7812 0.262 1.408 0.199 2.819-0.125 4.125l12.719 2.4062c1.916-10.059-2.1698-19.818-9.7188-25.5 5.438-0.333 10.339-4.7405 11.625-10.938l8.4062-40.594c0.556-2.68 0.3575-5.3222-0.4375-7.6562 0.1-0.086 0.18325-0.19225 0.28125-0.28125 0.24194-0.2175 0.48805-0.42579 0.71875-0.65625-0.23064 0.23051-0.44563 0.46994-0.6875 0.6875l26.25 79.562c0 0.587 0.5535 1.1098 1.5625 1.5938l-0.0625 59.406 30.5 0.0312 0.0625-56.031c5.804 0.097 11.825 0.0305 17.531-0.1875l-0.0625 56.219h-0.46875v26h62v-7h-7v-19h-26.125l0.0625-60.531c0.328-0.299 0.5-0.6105 0.5-0.9375l19.812-79.906c0.385 0.398 0.7695 0.79425 1.1875 1.1562-0.8 2.332-0.9875 4.9762-0.4375 7.6562l8.3438 40.594c1.275 6.199 6.1568 10.596 11.594 10.938-7.559 5.67-11.647 15.469-9.75 25.531l12.719-2.4062c-0.321-1.307-0.39-2.717-0.125-4.125 0.992-5.28 6.096-8.742 11.375-7.75 4.234 0.795 7.3038 4.2322 7.8438 8.2812l17.938-3.4062c-2.351-12.47-13.125-21.162-25.156-21.094 2.657-3.011 3.8745-7.44 2.9375-12l-8.3438-40.625c-0.449-2.183-1.3525-4.1412-2.5625-5.7812 1.906-3.012 3.0272-6.607 3.0312-10.5 9e-3 -10.493-8.059-19.022-18-19.031-3.872-3e-3 -7.438 1.307-10.375 3.5-7.775-3.754-25.58-7.2582-43.219-9.2812v-20.156c17.962-2.107 38.688-4.875 38.688-4.875 6.923 6e-3 10.337-5.5688 10.344-12.469l2.125-55.188c6e-3 -6.9-5.4832-12.494-12.406-12.5 0 0-37.962-4.933-62.375-5.25-7e-3 -0.614-0.0263-1.2308-0.0312-1.8438-0.085-3.667-0.274-7-0.75-11h-0.40625zm-0.5 303h-54.938v19h-7v7h62v-26h-0.0625zm-38.719-265.41c-0.26355 0.26119-0.50975 0.56025-0.75 0.84375s-0.49916 0.54573-0.71875 0.84375c0.21967-0.29794 0.44675-0.562 0.6875-0.84375s0.5177-0.58259 0.78125-0.84375zm15.719 27c0.10644 0.0268 0.20318 0.0312 0.3125 0.0312s0.20601-5e-3 0.3125-0.0312c-0.10648 0.0267-0.20319 0.0626-0.3125 0.0625s-0.20606-0.0356-0.3125-0.0625z"/>
  <path d="m462.5 270c-6.627 0-12 17-12 17 0 1.1 0.1595 2.1442 0.4375 3.1562-25.651 5.641-53.938 20.617-53.938 24.406v30.875c0 4.795 29.558 23.313 54.25 30.594l5.0938 18.75c-4.452 0.141-8.3638 0.394-9.4688 0.875-0.729 0.316-3.6402 6.695-7.7812 16.375-0.989-4.54-3.3165-8.2212-6.9375-10.281-8.955-5.094-22.405 1.6232-30.031 15.031l5.2188 2.9688c-0.84368 0.77972-1.6021 1.7185-2.25 2.75l-28.75 45.719c-0.421 0.671-3.5072 5.6202-4.7812 9.5312-2.721 1.071-5.1518 2.9275-6.8438 5.5625l-4.5938 4.3125c-8.086 12.591-2.5365 16.354 4.1875 14.781l9.0312 5.125c-0.761 6.116 8.0165 8.6135 14.312-1.1875l1.625-4.9062c2.435-3.791 4.0442-8.266 3.7812-12.25 3.146-3.054 5.5612-6.4938 5.7812-6.8438l28.719-45.719c0.875-1.391 1.4692-2.886 1.7812-4.375l1.0312 0.59375c-13.717 33.126-31.755 77.645-37.156 86.156-4.187 6.597 12.518 11.025 32.031 13.531-0.167 0.798-0.25 1.6208-0.25 2.4688v18c0 0.062-1e-3 0.1255 0 0.1875-4.002 0.99-7.2532 2.2105-8.4062 3.3125-2.796 2.677-8.5938 14.63-8.5938 17.875v0.25c0 3.245 3.13 6.375 6.375 6.375h-3.375c-1.657 0-3 1.343-3 3s1.343 3 3 3h55c1.657 0 3-1.343 3-3s-1.343-3-3-3h-2.7188c1.9853-0.06911 2.7188-0.50875 2.7188-3.125v-3.5c0-3.244-0.5665-16.125-5.5625-18.125-0.831-0.332-1.7232-0.6985-2.6562-1.0625 0.132-0.713 0.21875-1.4355 0.21875-2.1875v-18c4.406 0.104 8.312 0.0715 11.375-0.0625 3.554 0.014 8.2812-0.13675 13.656-0.46875-8e-3 0.181-0.03125 0.34825-0.03125 0.53125v18c0 0.802 0.0688 1.5858 0.21875 2.3438-0.81 0.312-1.5612 0.61825-2.2812 0.90625-4.995 2-5.9375 14.881-5.9375 18.125v3.5c0 2.6162 1.3878 3.0559 3.625 3.125h-2.625c-1.657 0-3 1.343-3 3s1.343 3 3 3h55c1.657 0 3-1.343 3-3s-1.343-3-3-3h-3.375c3.244 0 5.375-3.13 5.375-6.375v-0.25c0-3.245-5.2978-15.198-8.0938-17.875-1.212-1.16-4.6822-2.4538-8.9062-3.4688v-18.031c0-1.395-0.2495-2.7238-0.6875-3.9688 19.551-3.031 36.07-7.7778 31.688-14.094-5.74-8.273-25.551-52.272-40.625-85.094l1.0312-0.59375c0.312 1.488 0.90725 2.985 1.7812 4.375l28.75 45.719c0.22 0.35 2.604 3.7888 5.75 6.8438-0.263 3.982 1.3462 8.459 3.7812 12.25l1.625 4.9062c6.297 9.801 15.074 7.3035 14.312 1.1875l9.0312-5.125c6.723 1.574 12.274-2.2215 4.1875-14.812l-4.5938-4.2812c-1.691-2.635-4.0925-4.4915-6.8125-5.5625-1.274-3.911-4.3915-8.8612-4.8125-9.5312l-28.75-45.719c-0.652-1.038-1.401-1.967-2.25-2.75l5.2188-2.9688c-7.625-13.407-21.076-20.156-30.031-15.062-4.001 2.276-6.4065 6.544-7.1875 11.75-4.909-10.416-8.3782-17.323-9.1562-17.625-1.124-0.436-4.5025-0.55825-8.4375-0.53125l3.3438-17.219c25.168-5.734 56.844-22.691 56.844-27.656v-34.875c0-3.789-28.286-18.765-53.938-24.406 0.277-1.012 0.4375-2.0562 0.4375-3.1562 0 0-5.373-17-12-17h-12zm37.219 45.625c-0.7365 0.1125-1.4578 0.1525-2.1562 0.125 0.6985 0.0274 1.4198-0.013 2.1562-0.125zm-109.78 176.19c-0.72125 0.51439-1.4538 0.98817-2.1875 1.3438 0.73368-0.35558 1.4662-0.82936 2.1875-1.3438z"/>
  <path d="m866.81 296.53c-1.686 0.139-2.7032 3.269-2.2812 7s2.1265 6.64 3.8125 6.5c1.493-0.122 1.2702-2.5768 0.90625-5.7188 1.993 0.808 3.95 1.6415 5.875 2.5625 1.007 0.483 1.9855 1.033 2.9375 1.625 0.472 0.302 0.94325 0.64975 1.4062 0.96875 0.469 0.31 0.864 0.65825 1.25 1.0312 1.486 1.473 2.5392 3.5855 3.2812 5.6875l0.28125 0.8125h-30.875c-12.191 0-22.406 15.163-26.406 25.594v38.656c4 10.431 14.214 19.75 26.406 24.75h14.594v15.031c-0.02-1e-3 -0.0467-0.0312-0.0937-0.0312-13.562 0-29.122 1.109-38.625 8.125-11.478 8.473-15.096 24.138-15.219 38.125-4.774 0.266-8.5625 3.724-8.5625 7.875 0 4.324 4.1022 7.875 9.1562 7.875h22.562c0-1 0.454-16.6 1-21.594 1.768-16.129 11.125-16.75 27.156-16.75 0.867 0 1.625 0.057 2.625 0.125l-5e-5 39.219h-24.781l-29.312 90.844 13.625 8.1562h13.5c0.473 6.146 6.0782 11 12.906 11h95.125c6.828 0 12.433-4.854 12.906-11h12.719l12.094-8.1562-34.375-90.844h-27.406v-39.219c2.002-0.069 3.0422-0.125 3.9062-0.125 16.034 0 26.077 0.621 27.844 16.75 0.551 4.994 1.625 20.594 1.625 21.594h22.594c5.055 0 9.125-3.55 9.125-7.875 0-4.151-3.7572-7.61-8.5312-7.875-0.123-13.987-3.7408-29.653-15.219-38.125-9.504-7.016-26.376-8.125-39.938-8.125l-1.4062 0.0312v-15.031h14.562c12.193-5 21.438-14.318 25.438-24.75v-38.656c-4-10.43-13.244-25.594-25.438-25.594h-30.625c0.088-0.267 0.18425-0.5365 0.28125-0.8125 0.741-2.102 1.8255-4.3405 3.3125-5.8125 0.386-0.373 0.74875-0.65875 1.2188-0.96875 0.462-0.318 0.93525-0.6355 1.4062-0.9375 0.952-0.591 1.9305-1.141 2.9375-1.625 1.925-0.923 3.88-1.7242 5.875-2.5312-0.362 3.146-0.58775 5.5958 0.90625 5.7188 1.686 0.14 3.3885-2.77 3.8125-6.5s-0.59625-6.861-2.2812-7-1.8572 2.771-2.2812 6.5c-0.011 0.096-0.0203 0.18525-0.0312 0.28125-2.457-0.061-4.747 0.716-6.875 1.75-1.069 0.527-2.12 1.1432-3.125 1.7812-0.5 0.321-0.99175 0.646-1.4688 1-0.486 0.34-1.0095 0.83325-1.4375 1.2812-1.775 1.836-2.7525 4.1998-3.4375 6.4688-0.135 0.449-0.2095 0.92825-0.3125 1.4062h-21.594c-0.107-0.532-0.232-1.0562-0.375-1.5312-0.686-2.269-1.6605-4.5702-3.4375-6.4062-0.429-0.447-0.9515-0.911-1.4375-1.25-0.477-0.354-0.96775-0.679-1.4688-1-1.004-0.638-2.055-1.223-3.125-1.75-2.128-1.034-4.418-1.811-6.875-1.75-0.011-0.094-0.0203-0.18725-0.0312-0.28125-0.422-3.729-0.59525-6.639-2.2812-6.5z"/>
  <path d="m1144 326.72c-31.364 0-69.406 10.844-69.406 10.844-7.994 0-14.562 6.4738-14.562 14.469v37.156c-0.691-7.8215-3.1847-13.219-12.188-13.219-12.537 0-22.688 10.443-22.688 23.344 0 0.595 0.051 1.1538 0.094 1.7188 0.067 0.886 0.1464 1.7475 0.3124 2.5625 0.2505 1.2269 0.6356 2.3719 1.0938 3.4375-3.6535-0.0959-6.2378 0.75054-7.3125 2.4375-1.0636 1.6707-0.5018 3.864 1.5313 6.25-3.0389 0.26304-5.1644 1.2173-6 2.75-1.0055 1.8444-0.065 4.2601 2.5312 6.6875-2.7569 0.53133-4.5415 1.6039-5.1875 3.125-0.7631 1.7929 0.1855 3.877 2.6563 5.9688-2.4459 0.69536-4.002 1.8261-4.5 3.2812-0.6368 1.8654 0.5671 3.9286 3.3124 5.9062-2.2112 0.89171-3.5315 2.1032-3.8437 3.5312-0.3547 1.6178 0.5845 3.276 2.7187 4.8125-1.5963 0.92357-2.539 2.0311-2.7187 3.25-0.327 2.2386 1.8696 4.4826 6.0313 6.1562-3.6405 1.3965-6.3438 4.6862-6.3438 9.8125l1.0625 19.031c1.87 7.768 24.531 10.594 24.531 10.594 4.8179 0 8.9497-4.2512 9.9687-9.9062-5.219-1.691-8.7188-5.6105-8.7187-10.188 0-4.641 3.7537-8.599 9.0937-10.25-0.184-4.1728-1.1435-6.9778-3.1563-8.5 2.4003-1.0311 3.777-2.3788 4-3.9062 0.1975-1.3444-0.497-2.6732-2.0312-3.9062 0.8753-0.67704 1.44-1.4637 1.625-2.3125 0.312-1.424-0.4273-2.8877-2.0938-4.2812 0.8843-0.58691 1.5073-1.2673 1.7813-2.0625 0.3658-1.071 0.2768-2.7464-1.875-4.7812 1.5622-0.60134 2.5758-1.4573 3.0313-2.5312 0.636-1.4996 0.053-3.2656-1.625-5.0312 1.4231-0.48364 2.4142-1.2267 2.9374-2.1875 0.7555-1.3863 0.4432-3.1235-0.9062-4.9375 2.0886-0.3289 3.5679-1.0819 4.3125-2.25 0.651-1.024 1.037-2.8128-0.875-5.4688l-0.062-0.0937c2.5191-0.21901 4.3949-0.75186 5.7812-1.6562 1.3461-0.879 2.2225-2.1052 2.8126-3.6562 0.1973-0.51881 0.3637-1.0924 0.5-1.6875 0.2438-0.46159 0.3867-0.99822 0.4062-1.5938v83.75c0 6.471 22.547 35.762 35.375 46.688-0.02 2.678 0.375 5.8635 0.375 9.0625l-9.0319 40.062c0 7 42.281 7 42.281 0v-42.75c0-0.782-0.066-1.522-0.1875-2.25h36.406c-0.128 0.728-0.2188 1.468-0.2188 2.25v42.75c0 7 42.75 7 42.75 0l-9.0625-40.062c0-3.456 0.477-6.8885 0.375-9.6875 12.145-11.385 31.938-39.712 31.938-46.062v-82.844c0.044 0.23638 0.073 0.49325 0.125 0.71875 0.136 0.591 0.304 1.1402 0.5 1.6562 0.591 1.551 1.4665 2.7772 2.8125 3.6562 1.387 0.90431 3.2624 1.4372 5.7813 1.6562l-0.063 0.0937c-1.913 2.655-1.526 4.4438-0.875 5.4688 0.7455 1.1681 2.224 1.9211 4.3126 2.25-1.3496 1.814-1.6626 3.5512-0.9063 4.9375 0.5253 0.96397 1.5403 1.7041 2.9687 2.1875-1.6805 1.7672-2.2622 3.5318-1.625 5.0312 0.4547 1.0739 1.4685 1.9299 3.0313 2.5312-2.1572 2.0364-2.242 3.7094-1.875 4.7812 0.2732 0.79523 0.8647 1.4761 1.75 2.0625-1.6679 1.3935-2.3754 2.8582-2.0625 4.2812 0.1863 0.85684 0.7389 1.632 1.625 2.3125-1.5357 1.2337-2.2592 2.5618-2.0625 3.9062 0.2252 1.5301 1.626 2.8747 4.0313 3.9062-2.0128 1.5222-3.0036 4.3272-3.1876 8.5 5.341 1.65 9.125 5.609 9.125 10.25 0 4.577-3.53 8.4965-8.75 10.188 1.021 5.655 5.183 9.9062 10 9.9062 0 0 22.66-2.8258 24.531-10.594l1.0317-19.031c0-5.1253-2.7041-8.4167-6.3438-9.8125 4.1617-1.6735 6.3583-3.9167 6.0312-6.1562-0.1802-1.2226-1.0818-2.356-2.6874-3.2812 2.114-1.5289 3.0405-3.1701 2.6874-4.7812-0.31-1.4223-1.6171-2.6404-3.8124-3.5312 2.7452-1.9784 3.9179-4.04 3.2812-5.9062-0.4981-1.4543-2.0541-2.5864-4.5-3.2812 2.4715-2.0911 3.4506-4.1758 2.6875-5.9688-0.6454-1.5218-2.4588-2.5939-5.2187-3.125 2.5996-2.4296 3.5363-4.8429 2.5312-6.6875-0.8369-1.5368-2.948-2.49-6-2.75 2.0421-2.3901 2.5975-4.5765 1.5312-6.25-1.0701-1.6829-3.6274-2.5312-7.2812-2.4375 0.459-1.0656 0.813-2.2106 1.0625-3.4375 0.166-0.814 0.2768-1.6765 0.3437-2.5625 0.042-0.564 0.094-1.1238 0.094-1.7188 0-12.901-10.182-23.344-22.719-23.344-8.0989 0-10.916 4.3666-11.906 10.938v-34.875c1e-3 -7.992-6.256-14.469-14.25-14.469 0 0-41.417-10.844-72.781-10.844zm-50.469 38.25c-0.7361 0.31133-1.4078 0.68275-2.0625 1.125 0.6547-0.44225 1.3264-0.81367 2.0625-1.125zm104.97 0c0.7361 0.31133 1.439 0.68275 2.0937 1.125-0.6547-0.44225-1.3576-0.81367-2.0937-1.125zm-138.47 43.5v0.6875c0-0.1197-0.022-0.25209-0.031-0.375 0.011-0.10122 0.021-0.20959 0.031-0.3125z"/>
  <path d="m696.28 253.19c-1.762 0-3.2188 1.0568-3.2188 2.3438 0 0.565 0.292 1.0658 0.75 1.4688-5.422 0.228-9.625 2.0062-9.625 4.1562 0 2.085 3.9672 3.7848 9.1562 4.0938-0.529 1.16-0.9005 1.9072-1.1875 2.9062-0.368 1.317-0.5865 2.807-0.6875 4.125-0.082 1.212-0.10975 2.3888 0.15625 3.5938-22.073 0.115-38.719 8.7812-38.719 14.156 0 0 0.1465 7.0285 0.6875 17.062-0.379-0.063-0.7845-0.0937-1.1875-0.0937h-0.8125c-3.082-5e-5 -5.5938 1.9232-5.5938 4.2812v6.4375c0 2.357 2.5118 4.2812 5.5938 4.2812h0.8125c0.753 0 1.47-0.1065 2.125-0.3125 1.811 23.393 5.5185 51.619 12.812 54.281 4.378 1.598 10.229 2.635 16.656 3.125v13.906h-30.562c-6.127 0-11.342 2.7878-13.438 6.7188v-0.0937c-14.434-0.293-25.71 2.3258-31.969 11.219-1.479 1.416-3.6155 6.886-3.6875 8.75l-0.28125 6.8438c-0.1 2.611 1.452 5.0038 4 6.7188-3.303 6.523-4.4655 15.816-5.1875 26.188-0.811 11.618 3.3452 22.135 10.156 29.094-1.371 1.132-2.0338 2.556-2.0938 4.125v0.21875c-0.143 3.819 4.0222 7.008 9.7812 7.125l9.5938 0.1875c3.815 0.078 7.1998-1.2308 9.0938-3.2188 1.396 4.318 6.4118 7.6145 12.594 8.0625v62.719c-7.676 1.959-12.844 5.584-12.844 9.75 0 0.09 0.375 13.594 0.375 13.594h50.938s0.375-12.97 0.375-13.625c0-3.596-3.8588-6.7858-9.8438-8.8438v-63.531h27v63.625c-5.853 2.057-9.5938 5.199-9.5938 8.75 0 0.655 0.40625 13.625 0.40625 13.625h51.188v-13.531c0-3.83-4.346-7.2322-11-9.2812v-64.719c3.362-1.481 5.8435-3.9215 6.6875-6.8125 1.875 2.042 5.2812 3.3925 9.1562 3.3125l9.5938-0.1875c5.758-0.116 9.9242-3.306 9.7812-7.125v-0.21875c-0.061-1.571-0.72275-2.994-2.0938-4.125 6.812-6.958 10.965-17.474 10.156-29.094-0.767-11.039-2.0258-20.851-5.8438-27.406 2.351-1.694 3.7512-4.003 3.6562-6.5l-0.25-6.8125c-0.072-1.865-2.2075-7.6152-3.6875-9.0312-6.248-8.876-17.509-11.469-31.906-11.469-2.451-3-7.2175-5-12.688-5h-29.562v-13.906c6.631-0.498 13.026-1.545 18.281-3.125 8.821-2.652 12.255-30.665 13.594-54 0.229 0.023 0.4515 0.0312 0.6875 0.0312h0.875c3.081 0 5.5625-1.9232 5.5625-4.2812v-6.4375c0-2.357-2.4815-4.2812-5.5625-4.2812h-0.9375c0.275-9.983 0.21875-16.969 0.21875-16.969 0-5.005-16.44-12.898-37.562-14.031 0.317-1.274 0.2735-2.473 0.1875-3.75-0.102-1.318-0.35075-2.7455-0.71875-4.0625-0.283-0.988-0.63625-1.728-1.1562-2.875 5.76-0.096 10.375-1.9132 10.375-4.1562 0-1.836-3.101-3.4108-7.375-3.9688 0.604-0.424 1-0.99625 1-1.6562 0-1.287-1.4225-2.3438-3.1875-2.3438zm-57.281 172.56v63.156c-1.595-1.449-4.0135-2.4842-6.8125-2.7812-2.536-6.228-2.5765-14.223-1.9375-23.375 0.581-8.378 3.5478-20.276 4.3438-29.125 2.603-1.607 4.2468-3.8888 4.3438-6.4688zm107 3.125c0.89133 1.6732 2.4797 3.1101 4.5312 4.1562 0.29313 0.14963 0.59518 0.30399 0.90625 0.4375-0.3111-0.13327-0.61312-0.25662-0.90625-0.40625 0.731 8.895 3.784 21.038 4.375 29.562 0.64 9.151 0.5965 17.145-1.9375 23.375-2.893 0.308-5.3788 1.4105-6.9688 2.9375z"/>
  <path d="m1394.8 415c-10.355 0-17.844 12.665-17.844 14v20.656c-6.797 0.312-13.654 0.70975-16.844 1.2188-7.4729 1.189-10.27 8.2905-11.656 12.812s-18.482 41.805-18.312 46.969c0.167 5.096 0.1298 5.4982 3.8437 13.906 2.0381 4.612 6.7853 15.182 10.656 23.781 0.8975 0.12025 1.7926 0.30015 2.6875 0.5625-0.8948-0.26228-1.7901-0.44237-2.6875-0.5625-0.538-0.072-1.088-0.108-1.625-0.125-0.336-0.012-1.742 0-2.125 0-11.873 0-19.594 8.6058-19.594 19.219 0 3.651-0.3531 13.698 5.5 16.438 0.303 0.142 0.971 0.25825 1.875 0.40625 0.409 2.394 1.4672 6.8848 3.7812 8.2188 3.501 2.018 6.969 1.883 10.5 2 4.114 0.137 10.501-0.5 13.5-2 2.491-1.246 3.6013-7.1298 3.9062-9.0938 5.4961-1.009 10.504-2.2362 11.781-3.4062h46.375c0.071 0.598 0.2333 1.1048 0.5313 1.4688 0.9809 1.198 6.2585 2.3682 12.062 3.2812 0.4091 2.215 1.6648 7.8308 4.0938 8.9688 3.036 1.424 9.4525 1.8972 13.562 1.6562 3.526-0.207 6.9895-0.144 10.438-2.25 2.216-1.353 3.1623-5.7602 3.5312-8.2812 0.9191-0.172 1.6033-0.349 1.9063-0.5 5.783-2.887 5.1867-12.912 5.0937-16.562-0.269-10.609-8.2247-19.021-20.094-18.719-0.383 0.01-1.789 0.0415-2.125 0.0625h-0.062c3.748-9.205 8.6273-21.196 10.656-26.125 3.5-8.5 3.463-8.901 3.5-14 0.038-5.166-18-42.015-19.5-46.5s-4.5-11.5-12-12.5c-3.2509-0.434-10.259-0.6735-17.156-0.8125v-21.062c0.9995-1.076-7.8018-13.125-18.157-13.125z"/>
 </g>
 <g transform="translate(-71.75,-238)">
  <path d="m166.448,557.969 30.495.026 .049-56.032c-13.72-.229-26.217-1.349-30.492-3.393l-.052,59.399z" fill="#fee361"/>
  <path d="m214.52 501.78-0.05 56.221h28.405l0.053-60.523c-2.553 2.326-14.556 3.773-28.408 4.302z" fill="#fee361"/>
  <path d="m222.236,378.275 .018-20.16c-11.553,1.357-21.96,2.449-24.967,2.379-2.767-.064-11.276-1.035-21.032-2.25l-.019,21.245c7.196-1.232 14.251-2.258 20.3-2.993 7.585.089 16.617.738 25.7,1.779z" fill="#fee361"/>
  <path d="m257.842,403.05c.006-6.406 3.024-12.058 7.629-15.495-7.775-3.754-25.596-7.256-43.235-9.279-9.083-1.041-18.116-1.69-25.701-1.779-6.049.735-13.104,1.761-20.3,2.993-14.151,2.423-28.843,5.647-37.501,9.043 3.843,3.488 6.284,8.648 6.278,14.418-.005,5.788-2.47,10.96-6.34,14.441l26.257,79.576c0,.587.561,1.119 1.57,1.603 4.275,2.044 16.772,3.163 30.492,3.393 5.804.097 11.822.034 17.528-.184 13.852-.529 25.855-1.977 28.409-4.303 .328-.299.5-.612.5-.939l19.817-79.909c-3.334-3.453-5.408-8.259-5.403-13.579zm-57.847,18.448c-9.113-.008-16.493-8.014-16.486-16.014l33.001.029c-.007,8.001-7.402,15.994-16.515,15.985z" fill="#0066a6"/>
  <path d="m112.021,413.446c-1.214,1.638-2.122,3.591-2.574,5.772l-8.42,40.601c-.945,4.557.29,9.001 2.941,12.017 1.484.011 2.985.146 4.494.434 3.868.736 7.358,2.334 10.317,4.562 5.438-.333 10.338-4.724 11.624-10.921l8.42-40.599c.556-2.68.354-5.318-.441-7.652-3.104,2.674-7.066,4.278-11.384,4.274-6.254-.005-11.755-3.377-14.977-8.488z" fill="#fee361"/>
  <path d="m103.967,471.836c-12.031-.088-22.83,8.588-25.203,21.054l17.935,3.415c.547-4.05 3.621-7.474 7.856-8.261 5.281-.982 10.359,2.501 11.342,7.783 .262,1.408.198,2.801-.126,4.107l12.732,2.424c1.916-10.059-2.177-19.844-9.726-25.526-2.959-2.229-6.449-3.826-10.317-4.562-1.508-.288-3.009-.423-4.493-.434z" fill="#bdccd4"/>
  <path d="m145.012,402.95c.005-5.77-2.436-10.93-6.278-14.418-3.146-2.855-7.23-4.594-11.705-4.598-9.941-.009-18.007,8.491-18.017,18.984-.003,3.894 1.107,7.512 3.008,10.527 3.222,5.11 8.723,8.482 14.975,8.488 4.318.004 8.28-1.601 11.384-4.274l.292-.269c3.871-3.48 6.336-8.652 6.341-14.44z" fill="#ed1c24"/>
  <path d="m298.766,472.008c2.657-3.011 3.899-7.453 2.962-12.013l-8.349-40.614c-.449-2.183-1.353-4.137-2.563-5.777-3.231,5.104-8.738,8.468-14.99,8.462-4.318-.004-8.277-1.616-11.376-4.294-.8,2.332-1.006,4.97-.456,7.65l8.349,40.614c1.275,6.199 6.168,10.599 11.605,10.94 2.963-2.223 6.456-3.813 10.325-4.543 1.507-.284 3.009-.417 4.493-.425z" fill="#fee361"/>
  <path d="m298.766,472.008c-1.483.008-2.985.142-4.494.426-3.869.729-7.362,2.32-10.325,4.543-7.559,5.67-11.668,15.448-9.771,25.51l12.736-2.401c-.321-1.307-.383-2.699-.118-4.107 .992-5.28 6.076-8.756 11.355-7.764 4.234.795 7.302,4.225 7.842,8.274l17.941-3.384c-2.351-12.47-13.135-21.165-25.166-21.097z" fill="#bdccd4"/>
  <path d="m290.815,413.604c1.906-3.012 3.023-6.629 3.027-10.522 .009-10.493-8.042-19.007-17.983-19.016-3.872-.003-7.45,1.296-10.387,3.489-4.605,3.438-7.624,9.089-7.629,15.495-.005,5.32 2.069,10.126 5.404,13.578 .385.398.784.782 1.202,1.144 3.099,2.678 7.059,4.29 11.376,4.294 6.252.005 11.759-3.358 14.99-8.462z" fill="#ed1c24"/>
  <path d="m198.589,265.997c-.085-3.667-.271-6.997-.747-10.997h-.4c-.482,4-.674,7.331-.766,10.997-.006.608-.016,1.216-.026,1.824 .643.001 1.297.007 1.961.016-.007-.614-.017-1.227-.022-1.84z"/>
  <path d="m222.254,358.115c17.962-2.107 38.694-4.854 38.694-4.854 6.923.006 10.32-5.584 10.327-12.484l2.138-55.182c.006-6.9-5.503-12.5-12.426-12.506 0,0-37.962-4.936-62.375-5.253l-1.961-.016-1.894.005c-23.1.215-57,5.156-57,5.156-6.923-.006-12.67,5.582-12.677,12.482l2.041,55.186c-.006,6.9 3.609,12.497 10.533,12.504 0,0 21.269,2.932 38.601,5.09 9.756,1.215 18.266,2.186 21.032,2.25 3.006.071 13.414-1.02 24.967-2.378zm14.32-68.034c1.532.457 2.982,1.342 4.192,2.445 1.217,1.11 2.203,2.45 3.003,3.867s1.417,2.929 1.891,4.468c.495,1.526.895,3.115.412,4.795l-.615.102c-.993-1.398-1.275-2.861-1.688-4.32-.437-1.443-.955-2.857-1.606-4.199s-1.437-2.607-2.398-3.736c-.959-1.136-2.103-2.096-3.449-2.853l.258-.569zm-16.308,13.937c1.749.002 3.164,3.51 3.16,7.836s-1.424,7.832-3.173,7.83-3.164-3.51-3.16-7.836 1.424-7.832 3.173-7.83zm-37.461,37.431c2.25.485 4.505.749 6.773.934 2.268.17 4.539.269 6.812.284s4.544-.031 6.812-.16 4.526-.312 6.796-.7l.139.404c-2.111,1.086-4.443,1.636-6.756,2.004-2.325.347-4.673.483-7.016.43s-4.685-.25-6.994-.678c-2.301-.431-4.61-1.038-6.708-2.115l.142-.403zm-25.351-48.024c-.963,1.127-1.752,2.392-2.405,3.732s-1.175,2.753-1.614,4.196c-.416,1.458-.701,2.921-1.696,4.317l-.615-.104c-.48-1.68-.078-3.268.42-4.793 .477-1.539 1.097-3.044 1.899-4.465s1.792-2.754 3.011-3.862c1.212-1.102 2.663-1.983 4.196-2.438l.258.568c-1.348.756-2.493,1.715-3.454,2.849zm16.798,26.216c-1.749-.002-3.164-3.51-3.16-7.837s1.424-7.831 3.173-7.83 3.164,3.51 3.16,7.836-1.424,7.832-3.173,7.831z" fill="#fee361"/>
  <path transform="matrix(.00087269 -1 1 .00087269 -137.7 485.79)" d="m182.09 311.81a7.833 3.167 0 1 0 -15.666 0 7.833 3.167 0 1 0 15.666 0" fill="#fff"/>
  <path transform="matrix(-.00087266 1 -1 -.00087266 532.3 91.864)" d="m228.09 311.85a7.833 3.167 0 1 0 -15.666 0 7.833 3.167 0 1 0 15.666 0" fill="#fff"/>
  <path d="m196.363,344.645c2.343.054 4.691-.083 7.016-.43 2.313-.368 4.645-.918 6.756-2.004l-.139-.404c-2.27.389-4.527.573-6.796.7s-4.539.165-6.812.16c-2.273-.016-4.544-.114-6.812-.284-2.268-.185-4.522-.448-6.773-.934l-.144.402c2.098,1.077 4.407,1.685 6.708,2.115 2.312.429 4.654.63 6.996.679z"/>
  <path d="m156.453,292.447c-1.219,1.108-2.208,2.446-3.011,3.862s-1.422,2.926-1.899,4.465c-.498,1.525-.9,3.113-.42,4.793l.615.104c.996-1.396 1.28-2.859 1.696-4.317 .439-1.443.959-2.856 1.614-4.196 .652-1.341 1.442-2.605 2.405-3.732s2.106-2.093 3.454-2.847l-.258-.568c-1.533.453-2.983,1.335-4.196,2.436z"/>
  <path d="m239.764,293.502c.961,1.129 1.748,2.395 2.398,3.736s1.17,2.756 1.606,4.199c.413,1.459.695,2.922 1.688,4.32l.615-.102c.483-1.68.083-3.269-.412-4.795-.474-1.539-1.091-3.045-1.891-4.468s-1.787-2.757-3.003-3.867c-1.21-1.104-2.66-1.988-4.192-2.445l-.259.568c1.347.758 2.49,1.718 3.45,2.854z"/>
  <path d="m202.48 249.32a5 5.333 0 1 0 -10 0 5 5.333 0 1 0 10 0" fill="#bdccd4"/>
  <path d="m183.51 405.48c-7e-3 8 7.374 16.006 16.486 16.014s16.508-7.984 16.515-15.984l-33.001-0.03z" fill="#fee361"/>
  <path d="m142 558h55v19h-55z" fill="#ed1c24"/>
  <path d="m142 577h-7v7h62v-7z" fill="#0066a6"/>
  <path d="m214.47 558h-0.471v19h55v-19h-26.124z" fill="#ed1c24"/>
  <path d="m214 577v7h62v-7h-7z" fill="#0066a6"/>
 </g>
 <g transform="translate(-71.75,-238)">
  <path d="m486.062,290.171c.277-1.012.438-2.071.438-3.171 0,0-5.373-17-12-17h-12c-6.627,0-12,17-12,17 0,1.1.16,2.159.438,3.171 6.146-1.352 12.144-2.171 17.562-2.171s11.416.819 17.562,2.171z" fill="#61559f"/>
  <path d="m425,535v18c0,.062.008.122.009.184 4.47-1.105 9.874-1.92 14.366-1.934 7.339-.023 13.56,2.059 18.415,3.947 .132-.713.21-1.445.21-2.197v-18-.013c-9.604-.228-21.629-1.031-32.743-2.458-.167.798-.257,1.623-.257,2.471z" fill="#ba9bc9"/>
  <path d="m425.009,553.184c-4.002.99-7.258,2.215-8.411,3.317-2.796,2.677-8.599,14.629-8.599,17.874v.25c0,3.245 3.13,6.375 6.375,6.375h47.25 .723c2.688-.003 3.652-.14 3.652-3.13v-3.495c0-3.244-.562-16.125-5.558-18.125-.831-.332-1.719-.689-2.652-1.053-4.855-1.889-11.076-3.971-18.415-3.947-4.491.014-9.895.828-14.365,1.934z" fill="#61559f"/>
  <path d="m414.38 581h-3.375c-1.657 0-3 1.343-3 3s1.343 3 3 3h55c1.657 0 3-1.343 3-3s-1.343-3-3-3h-51.625z" fill="#ba9bc9"/>
  <path d="m483,535v18c0,.802.082,1.585.232,2.343 4.985-1.925 11.615-4.116 19.143-4.093 4.285.014 9.344.752 13.623,1.78 0-.01.002-.02.002-.03v-18c0-1.395-.25-2.729-.688-3.974-10.84,1.681-22.611,2.833-32.284,3.433-.008.181-.028.358-.028.541z" fill="#ba9bc9"/>
  <path d="m483.232,555.343c-.81.312-1.58.619-2.3.907-4.995,2-5.933,14.881-5.933,18.125v3.495c0,2.99 1.811,3.127 4.633,3.13h.742 47.25c3.244,0 5.375-3.13 5.375-6.375v-.25c0-3.245-5.303-15.197-8.099-17.874-1.212-1.16-4.679-2.456-8.903-3.471-4.279-1.028-9.338-1.767-13.623-1.78-7.526-.023-14.156,2.168-19.142,4.093z" fill="#61559f"/>
  <path d="m479.63 581h-3.633c-1.657 0-3 1.343-3 3s1.343 3 3 3h55c1.657 0 3-1.343 3-3s-1.343-3-3-3h-51.367z" fill="#ba9bc9"/>
  <path d="m497.393,412.473c-4.909-10.416-8.375-17.33-9.153-17.632-1.124-.436-4.503-.554-8.438-.527l-.135.686h-23.263l-.06-.219c-4.452.141-8.354.404-9.459.885-.729.316-3.646,6.671-7.787,16.351 1.456,6.685.003,15.231-4.538,23.216l-4.191-2.384c-13.717,33.126-31.735,77.64-37.136,86.151-4.187,6.597 12.511,11.023 32.024,13.529 11.114,1.427 23.139,2.23 32.743,2.458 4.406.104 8.306.087 11.369-.047 3.554.014 8.283-.149 13.658-.481 9.673-.6 21.444-1.752 32.284-3.433 19.551-3.031 36.056-7.779 31.674-14.095-5.74-8.273-25.531-52.258-40.605-85.08l-4.187,2.381c-4.217-7.417-5.767-15.316-4.8-21.759z" fill="#61559f"/>
  <path d="m479.667,395 .134-.687 3.352-17.229c-5.29,1.205-10.293,1.916-14.652,1.916-5.07,0-11.011-1.125-17.262-2.969l5.106,18.75 .06.219h23.262z" fill="#61559f"/>
  <path d="m483.152,377.084c25.168-5.734 56.848-22.672 56.848-27.637v-34.895c0-3.789-28.286-18.741-53.938-24.382-6.146-1.351-12.143-2.17-17.562-2.17s-11.416.819-17.562,2.171c-25.651,5.641-53.938,20.593-53.938,24.382v30.895c0,4.795 29.546,23.303 54.238,30.584 6.251,1.843 12.192,2.968 17.262,2.968 4.359,0 9.362-.711 14.652-1.916zm-8.463-19.192 .59,1.912c-3.27.986-6.65,1.202-9.951,1.131-3.309-.067-6.576-.415-9.804-.791l.236-1.986c3.219.396 6.417.783 9.605.845 3.18.048 6.366-.193 9.324-1.111zm14.424-48.788c1.362.187 2.684.5 3.971.885s2.539.855 3.739,1.455 2.364,1.289 3.456,2.262l-.561,1.92c-1.473.225-2.858.107-4.203-.102-1.343-.216-2.632-.576-3.887-1.009-1.256-.434-2.482-.925-3.681-1.502-1.21-.6-2.345-1.201-3.527-2.045l.49-1.939c1.414-.209 2.852-.089 4.203.075zm-55.168,6.521-.561-1.92c1.092-.973 2.256-1.656 3.456-2.263 1.201-.599 2.451-1.069 3.739-1.454s2.609-.698 3.972-.885c1.351-.163 2.788-.283 4.202-.075l.49,1.939c-1.183.844-2.318,1.445-3.527,2.045-1.198.577-2.426,1.068-3.682,1.502-1.255.433-2.544.793-3.887,1.009-1.343.208-2.729.327-4.202.102z" fill="#ba9bc9"/>
  <path d="m375.795,490.811c-2.29,3.117-5.303,4.727-7.099,3.636-2.002-1.218-1.73-5.323.608-9.169 .576-.947 1.223-1.788 1.902-2.503-.126-.741-.206-1.498-.206-2.274 0-.786.214-1.741.547-2.764-2.721,1.071-5.138,2.955-6.83,5.59l-4.591,4.283c-8.086,12.591-2.542,16.381 4.182,14.808l9.042,5.101c-.761,6.116 8.021,8.638 14.317-1.163l1.604-4.907c2.435-3.791 4.054-8.277 3.791-12.261-2.617,2.541-5.746,4.813-8.562,4.813-3.319-.001-6.354-1.204-8.705-3.19z" fill="#92278f"/>
  <path d="m368.696,494.446c1.795,1.091 4.809-.519 7.099-3.636-2.38-2.012-4.044-4.832-4.589-8.036-.679.715-1.326,1.556-1.902,2.503-2.338,3.846-2.61,7.952-.608,9.169z" fill="#92278f" stroke="#b3b3b3" stroke-miterlimit="10"/>
  <path d="m405.089,422.494-28.736,45.719c-.421.671-3.531,5.612-4.805,9.523-.333,1.022-.547,1.978-.547,2.764 0,.776.08,1.533.206,2.274 .545,3.204 2.209,6.024 4.589,8.036 2.351,1.986 5.386,3.189 8.705,3.189 2.816,0 5.945-2.272 8.562-4.813 3.146-3.054 5.55-6.495 5.77-6.845l28.736-45.719c.875-1.391 1.458-2.872 1.77-4.361l-21.979-12.501c-.85.783-1.619,1.696-2.271,2.734z" fill="#ba9bc9"/>
  <path d="m439.1 412.02c-0.989-4.54-3.321-8.222-6.942-10.282-8.955-5.094-22.396 1.647-30.022 15.055l5.224 2.972 21.979 12.501 1.031 0.587 4.191 2.384c4.542-7.986 5.995-16.533 4.539-23.217z" fill="#92278f"/>
  <path d="m576.627,486.609-4.591-4.283c-1.691-2.635-4.109-4.519-6.829-5.59 .333,1.022.547,1.978.547,2.764 0,.776-.08,1.533-.206,2.274 .679.715 1.326,1.556 1.901,2.503 2.338,3.846 2.61,7.951.608,9.169-1.795,1.091-4.81-.519-7.099-3.636-2.351,1.986-5.386,3.189-8.705,3.189-2.816,0-5.945-2.272-8.562-4.812-.263,3.982 1.356,8.469 3.791,12.26l1.604,4.907c6.297,9.801 15.078,7.279 14.317,1.163l9.042-5.101c6.723,1.574 12.268-2.216 4.182-14.807z" fill="#92278f"/>
  <path d="m560.959,489.811c2.289,3.117 5.304,4.727 7.099,3.636 2.002-1.218 1.729-5.323-.608-9.169-.575-.947-1.223-1.788-1.901-2.503-.546,3.204-2.21,6.024-4.59,8.036z" fill="#92278f" stroke="#b3b3b3" stroke-miterlimit="10"/>
  <path d="m560.959,489.811c2.38-2.012 4.044-4.832 4.589-8.036 .126-.741.206-1.498.206-2.274 0-.786-.214-1.741-.547-2.764-1.274-3.911-4.385-8.853-4.806-9.523l-28.736-45.719c-.652-1.038-1.421-1.951-2.27-2.734l-21.979,12.502c.312,1.488.896,2.971 1.77,4.361l28.736,45.719c.22.35 2.624,3.791 5.77,6.846 2.617,2.54 5.746,4.812 8.562,4.812 3.319-.001 6.354-1.204 8.705-3.19z" fill="#ba9bc9"/>
  <path d="m534.619,415.789c-7.625-13.407-21.066-20.148-30.021-15.055-4.001,2.276-6.424,6.532-7.205,11.738-.967,6.443.583,14.343 4.801,21.76l4.187-2.381 1.036-.59 21.979-12.502 5.223-2.97z" fill="#92278f"/>
  <path d="m445.717,313.013c1.209-.6 2.345-1.201 3.527-2.045l-.49-1.939c-1.414-.208-2.852-.088-4.202.075-1.362.187-2.684.5-3.972.885s-2.538.855-3.739,1.454c-1.2.606-2.364,1.29-3.456,2.263l.561,1.92c1.473.225 2.858.106 4.203-.102 1.343-.216 2.632-.576 3.887-1.009s2.483-.925 3.681-1.502z"/>
  <path d="m484.421,310.968c1.183.844 2.317,1.445 3.527,2.045 1.198.577 2.425,1.068 3.681,1.502 1.255.433 2.544.793 3.887,1.009 1.345.209 2.73.326 4.203.102l.561-1.92c-1.092-.973-2.256-1.656-3.456-2.262-1.2-.6-2.451-1.07-3.739-1.455s-2.608-.698-3.971-.885c-1.352-.163-2.789-.283-4.202-.075l-.491,1.939z"/>
  <path d="m455.524,360.144c3.228.376 6.495.724 9.804.791 3.301.071 6.682-.145 9.951-1.131l-.59-1.912c-2.958.918-6.145,1.159-9.323,1.11-3.188-.062-6.387-.448-9.605-.845l-.237,1.987z"/>
  <path d="m452 333.01a4.378 11.37 0 1 0 -8.756 0 4.378 11.37 0 1 0 8.756 0" fill="#fff"/>
  <path d="m491 333.01a4.378 11.37 0 1 0 -8.756 0 4.378 11.37 0 1 0 8.756 0" fill="#fff"/>
 </g>
 <g transform="translate(-71.75,-238)">
  <path d="m697.155,276c.317-1.274.26-2.488.174-3.765-.102-1.318-.321-2.745-.689-4.062-.283-.988-.64-1.716-1.16-2.863l-.475.009c-.566,0-1.119-.022-1.662-.054-.529,1.16-.891,1.877-1.178,2.876-.368,1.317-.588,2.824-.689,4.142-.082,1.212-.13,2.375.136,3.58 .13,0 .257-.005.387-.005 1.745-.002 3.464.051 5.156.142z"/>
  <path d="m702,379.088c-6.017.451-12.236.456-18,.017v13.895h18v-13.912z" fill="#00a651"/>
  <path d="m652.42,307h-.84c-3.082,0-5.58,1.911-5.58,4.269v6.463c0,2.357 2.498,4.269 5.58,4.269h.84c.753,0 1.47-.116 2.125-.322-.404-5.215-.715-10.186-.951-14.582-.379-.063-.771-.097-1.174-.097z" fill="#00a651"/>
  <path d="m734.578,322h.844c3.081,0 5.578-1.911 5.578-4.269v-6.463c0-2.357-2.497-4.269-5.578-4.269h-.844l-.068.002c-.125,4.499-.321,9.605-.629,14.961 .229.023.461.038.697.038z" fill="#00a651"/>
  <path d="m702,379.088c6.631-.498 13.016-1.535 18.271-3.115 8.821-2.652 12.271-30.674 13.61-54.009 .308-5.356.504-10.462.629-14.961 .275-9.983.199-16.966.199-16.966 0-5.005-16.432-12.904-37.554-14.037-1.692-.09-3.411-.143-5.157-.142l-.387.005c-22.073.115-38.715,8.799-38.715,14.174 0,0 .156,7.026.697,17.06 .236,4.396.547,9.367.951,14.582 1.811,23.393 5.495,51.633 12.789,54.295 4.378,1.598 10.239,2.642 16.666,3.132 5.765.438 11.984.433 18.001-.018zm5.175-85.415c.854.003 1.598.197 2.331.408 .73.217 1.411.54 2.104.839s1.377.631 2.059.976c.668.354 1.359.719 2.026,1.181l-.305.953c-1.599-.013-3.174-.395-4.654-.913-.739-.274-1.481-.554-2.161-.967-.673-.426-1.322-.897-1.85-1.584l.45-.893zm-35.646,2.223c.682-.345 1.367-.671 2.058-.976s1.373-.623 2.104-.839c.733-.211 1.477-.405 2.331-.408l.449.893c-.526.687-1.177,1.158-1.849,1.584-.68.413-1.421.692-2.161.967-1.479.519-3.055.9-4.652.913l-.305-.953c.667-.463 1.358-.827 2.025-1.181zm3.342,29.104c-5.451,0-9.871-3.227-9.871-7.205v-3.59c0-2.646 1.96-4.952 4.872-6.205h-11.872v-2h70v2h-10.871c2.912,1.253 4.871,3.56 4.871,6.205v3.59c0,3.979-4.418,7.205-9.868,7.205h-4.264c-5.45,0-9.868-3.227-9.868-7.205v-3.59c0-2.646 1.959-4.952 4.871-6.205h-18.743c2.912,1.253 4.872,3.56 4.872,6.205v3.59c0,3.979-4.42,7.205-9.871,7.205h-4.258zm7.177,20.898c1.954.229 3.741.322 5.622.35 1.864.03 3.754.008 5.678-.018s3.876-.095 5.863-.062c1.985.023 4.008.076 6.052.427l.092,1.998c-1.928.539-3.864.956-5.841,1.298-1.974.355-3.987.581-6.037.673s-4.144.016-6.233-.379c-2.063-.404-4.214-1.116-5.932-2.427l.736-1.86z" fill="#d9e021"/>
  <path d="m689 317.8v-3.59c0-2.646-1.96-4.952-4.872-6.205h-14.256c-2.912 1.253-4.872 3.56-4.872 6.205v3.59c0 3.979 4.42 7.205 9.871 7.205h4.258c5.451 0 9.871-3.227 9.871-7.205zm-11.44 0.655c-2.326 0-4.211-1.376-4.211-3.074s1.885-3.073 4.211-3.073c2.324 0 4.211 1.376 4.211 3.073s-1.887 3.074-4.211 3.074z" fill="#fff"/>
  <path d="m698 314.2v3.59c0 3.979 4.418 7.205 9.868 7.205h4.264c5.45 0 9.868-3.227 9.868-7.205v-3.59c0-2.646-1.959-4.952-4.871-6.205h-14.258c-2.912 1.253-4.871 3.56-4.871 6.205zm12.044-1.902c2.326 0 4.21 1.376 4.21 3.073s-1.884 3.074-4.21 3.074-4.211-1.376-4.211-3.074 1.886-3.073 4.211-3.073z" fill="#fff"/>
  <path d="m728 306h-70v2h70z"/>
  <path d="m681.77 315.38a4.211 3.074 0 1 0 -8.422 0 4.211 3.074 0 1 0 8.422 0" fill="#fff" stroke="#000" stroke-miterlimit="10"/>
  <path d="m714.25 315.38a4.21 3.074 0 1 0 -8.42 0 4.21 3.074 0 1 0 8.42 0" fill="#fff" stroke="#000" stroke-miterlimit="10"/>
  <path d="m708,505v63.629c4.43-1.558 10.068-2.488 16.215-2.488 5.508,0 10.602.76 14.785,2.048v-64.707c-2.175.957-4.714,1.519-7.439,1.519h-23.561z" fill="#a1cd43"/>
  <path d="m708,568.629c-5.853,2.057-9.595,5.207-9.595,8.758 0,.655.402,13.613.402,13.613h51.193v-13.541c0-3.83-4.346-7.222-11-9.271-4.184-1.288-9.277-2.048-14.785-2.048-6.147.001-11.785.931-16.215,2.489z" fill="#00a651"/>
  <path d="m652,504.947v62.709c3.818-.975 8.257-1.535 12.997-1.535 6.046,0 11.602.903 16.003,2.416v-63.537h-27.561c-.486,0-.965-.019-1.439-.053z" fill="#a1cd43"/>
  <path d="m652,567.656c-7.676,1.959-12.838,5.597-12.838,9.763 0,.09.379,13.581.379,13.581h50.913c0,0 .377-12.968.377-13.623 0-3.596-3.846-6.782-9.831-8.84-4.401-1.513-9.957-2.416-16.003-2.416-4.74,0-9.179.561-12.997,1.535z" fill="#00a651"/>
  <path d="m744.79,495.456c-.378-.686-.604-1.42-.631-2.189l-.008-.22c-.058-1.521.634-2.942 1.849-4.108v-60.069c-.47-.89-.75-1.843-.788-2.841l-.146-3.799-.114-3.285-.789-20.945h.075c-2.451-3-7.208-5-12.678-5h-29.56-18-30.561c-6.127,0-11.351,2.791-13.447,6.722l-.785,20.593-.115,3.037-.092,2.413v63.15c1.312,1.193 2.07,2.668 2.01,4.255l-.01.219c-.028.77-.254,1.502-.63,2.188 .168.099-.039.435-.305.506-.193.28-.421.547-.666.805 1.396,4.318 6.419,7.613 12.601,8.061 .474.034.953.053 1.439.053h27.561 27 23.561c2.726,0 5.265-.562 7.439-1.519 3.362-1.481 5.835-3.925 6.679-6.816-.21-.229-.415-.46-.585-.706-.266-.071-.473-.409-.304-.505z" fill="#00a651"/>
  <path d="m693.477,350.563c2.05-.092 4.063-.317 6.037-.673 1.977-.342 3.913-.759 5.841-1.298l-.092-1.998c-2.044-.351-4.066-.403-6.052-.427-1.987-.032-3.939.035-5.863.062s-3.813.048-5.678.018c-1.881-.027-3.668-.121-5.622-.35l-.736,1.859c1.718,1.311 3.868,2.022 5.932,2.427 2.089.396 4.184.469 6.233.38z"/>
  <path d="m674.461,297.116c.74-.274 1.481-.554 2.161-.967 .672-.426 1.322-.897 1.849-1.584l-.449-.893c-.854.003-1.598.197-2.331.408-.73.216-1.41.54-2.104.839s-1.376.631-2.058.976c-.667.354-1.358.719-2.025,1.181l.305.953c1.597-.012 3.172-.394 4.652-.913z"/>
  <path d="m708.575,296.149c.68.413 1.422.692 2.161.967 1.48.519 3.056.9 4.654.913l.305-.953c-.667-.462-1.358-.826-2.026-1.181-.682-.345-1.367-.671-2.059-.976s-1.374-.622-2.104-.839c-.733-.211-1.477-.405-2.331-.408l-.449.893c.527.687 1.176,1.159 1.849,1.584z"/>
  <path d="m640.37,495.576c.376-.686.602-1.418.63-2.188l.01-.219c.061-1.587-.697-3.062-2.01-4.255-1.595-1.449-4.012-2.482-6.811-2.779-2.536-6.228-2.586-14.234-1.947-23.386 .581-8.378 3.541-20.269 4.337-29.118-2.475,1.527-5.794,2.435-9.436,2.36l-7.893-.16c-3.596-.072-6.819-1.09-9.184-2.682-3.303,6.523-4.459,15.82-5.181,26.192-.811,11.618 3.335,22.128 10.146,29.087-1.371,1.132-2.029,2.562-2.089,4.131l-.011.219c-.143,3.819 4.023,7 9.782,7.117l9.598.194c3.815.078 7.192-1.216 9.086-3.204 .245-.258.473-.524.666-.805 .268-.069.475-.405.307-.504z" fill="#d9e021"/>
  <path d="m625.144,435.992c3.642.074 6.961-.833 9.436-2.36 2.603-1.607 4.271-3.9 4.368-6.48l.053-1.387 .092-2.413 .115-3.037 .785-20.593 .004-.106c-14.434-.293-25.721,2.328-31.98,11.221-1.479,1.416-3.615,6.907-3.687,8.771l-.259,6.836c-.1,2.611 1.449,4.992 3.997,6.707 2.364,1.592 5.588,2.609 9.184,2.682l7.892.159z" fill="#a1cd43"/>
  <path d="m772.126,488.308c6.812-6.958 10.955-17.467 10.146-29.087-.767-11.039-2.027-20.861-5.845-27.416-2.39,1.724-5.754,2.83-9.521,2.906l-7.891.16c-3.188.065-6.13-.624-8.475-1.821 .731,8.895 3.784,21.054 4.375,29.579 .64,9.151.589,17.155-1.945,23.385-2.893.308-5.381,1.398-6.971,2.925-1.215,1.166-1.906,2.587-1.849,4.108l.008.22c.027.77.253,1.504.631,2.189-.169.096.038.434.304.503 .17.246.375.478.585.706 1.875,2.042 5.292,3.383 9.167,3.303l9.599-.193c5.758-.116 9.924-3.298 9.781-7.117l-.009-.219c-.061-1.571-.719-3-2.09-4.131z" fill="#d9e021"/>
  <path d="m744.952,418.945 .114,3.162 .146,3.86c.038.998.318,1.981.788,2.871 .889,1.683 2.48,3.144 4.541,4.195 2.345,1.197 5.286,1.895 8.475,1.829l7.891-.156c3.767-.076 7.131-1.181 9.521-2.904 2.351-1.694 3.757-3.984 3.662-6.481l-.259-6.835c-.072-1.865-2.207-7.602-3.687-9.018-6.248-8.876-17.509-11.468-31.906-11.468h-.075l.789,20.945z" fill="#a1cd43"/>
  <path d="m695.479,265.309c5.76-.096 10.354-1.92 10.354-4.163 0-1.836-3.08-3.39-7.354-3.948-.574.404-1.352.655-2.213.655-.988,0-1.861-.335-2.447-.852-5.422.228-9.642,1.995-9.642,4.145 0,2.085 3.977,3.809 9.166,4.118 .543.032 1.096.054 1.662.054l.474-.009z" fill="#d9e021"/>
  <path d="m698.479,257.199c.604-.424.981-1.017.981-1.677 0-1.287-1.429-2.33-3.194-2.33s-3.191,1.043-3.191,2.33c0,.565.286,1.077.744,1.48 .586.516 1.459.852 2.447.852 .861,0 1.638-.251 2.213-.655z" fill="#d9e021"/>
 </g>
 <g transform="translate(-71.75,-238)">
  <path d="m1095.361,539.87c-.02,2.678.39,5.867.39,9.066l-9.047,40.064c0,7 42.296,7 42.296,0v-42.742c0-.782-.08-1.53-.201-2.258h-26.413c-1.524,0-4.006-1.558-7.025-4.13z" fill="#3fa9f5"/>
  <path d="m1165.214,544c-.128.728-.214,1.476-.214,2.258v42.742c0,7 42.747,7 42.747,0l-9.047-40.063c0-3.456.479-6.901.377-9.7-3.146,2.948-5.779,4.764-7.424,4.764h-26.439z" fill="#3fa9f5"/>
  <path d="m1216.7 337.57s-41.409-10.857-72.773-10.857-69.403 10.857-69.403 10.857c-7.994 0-14.559 6.48-14.559 14.475v141.14c0 6.471 22.533 35.763 35.361 46.689 3.019 2.572 5.501 4.13 7.024 4.13h89.267c1.645 0 4.278-1.815 7.424-4.764 12.145-11.385 31.923-39.706 31.923-46.056v-141.14c1e-3 -7.992-6.27-14.473-14.264-14.473zm-70.735 129.08c-3.95 0.052-7.961-0.285-11.859-1.243-3.88-0.961-7.688-2.524-10.85-4.943l0.41-0.912c3.797 0.798 7.441 1.298 11.122 1.524 3.672 0.233 7.345 0.235 11.048 0.107l11.213-0.519c3.785-0.143 7.618-0.277 11.562 0.057l0.172 0.984c-3.6 1.653-7.325 2.773-11.138 3.606s-7.724 1.286-11.68 1.339zm60-54.954c0 6.796-5.51 12.305-12.306 12.305h-95.389c-6.796 0-12.306-5.509-12.306-12.305v-35.391c0-6.796 5.51-12.305 12.306-12.305h95.389c6.796 0 12.306 5.509 12.306 12.305v35.391z" fill="#999"/>
  <path d="m1193.7 364h-95.389c-6.796 0-12.306 5.509-12.306 12.305v35.391c0 6.796 5.51 12.305 12.306 12.305h95.389c6.796 0 12.306-5.509 12.306-12.305v-35.391c0-6.796-5.51-12.305-12.306-12.305zm-67.483 35.716c-2.499 0-4.523-5.542-4.523-12.377s2.024-8.759 4.523-8.759 4.523 1.923 4.523 8.759-2.025 12.377-4.523 12.377zm42.221 0c-2.499 0-4.524-5.542-4.524-12.377s2.025-8.759 4.524-8.759 4.523 1.923 4.523 8.759-2.025 12.377-4.523 12.377z" fill="#3fa9f5"/>
  <path d="m1126.2 378.58c-2.499 0-4.523 1.923-4.523 8.759s2.024 12.377 4.523 12.377 4.523-5.542 4.523-12.377-2.025-8.759-4.523-8.759z" fill="#fff"/>
  <path d="m1168.4 378.58c-2.499 0-4.524 1.923-4.524 8.759s2.025 12.377 4.524 12.377 4.523-5.542 4.523-12.377-2.025-8.759-4.523-8.759z" fill="#fff"/>
  <path d="m1168.646,460.721c-3.944-.334-7.777-.199-11.562-.057l-11.213.519c-3.703.128-7.376.126-11.048-.107-3.681-.227-7.325-.727-11.122-1.524l-.41.912c3.161,2.419 6.97,3.982 10.85,4.943 3.898.958 7.909,1.295 11.859,1.243 3.956-.054 7.869-.511 11.681-1.338s7.538-1.953 11.138-3.606l-.173-.985z"/>
  <path d="m1027.1 463.09c-4.019-0.306-7.637-1.09-10.488-2.156-4.007 1.222-7.091 4.586-7.091 10.054l1.059 19.046c1.87 7.768 24.52 10.581 24.52 10.581 4.818 0 8.979-4.227 9.998-9.882-5.219-1.691-8.748-5.616-8.748-10.193 0-4.641 3.771-8.609 9.111-10.26-0.198-4.491-1.3-7.399-3.64-8.827-3.47 1.402-8.831 2.082-14.721 1.637z" fill="#0066a6"/>
  <path d="m1060,409.148c-.01-.28-.026-.566-.08-.871-.171,1.295-.429,2.439-.811,3.443 .578-.579.861-1.357.891-2.275v-.297z" fill="#fff"/>
  <path d="m1026.403,455.875c-5.381-.688-9.991-2.209-12.897-4.046-1.842.885-3.012,2.004-3.2,3.287-.315,2.159 2.182,4.281 6.285,5.815 2.852,1.066 6.47,1.851 10.488,2.156 5.89.445 11.251-.235 14.721-1.638 2.303-.933 3.781-2.179 3.994-3.638 .198-1.345-.698-2.677-2.39-3.86-3.187,2.002-9.759,2.85-17.001,1.924z" fill="#bdccd4"/>
  <path d="m1030.628,463.724c-1.179,0-2.386-.046-3.587-.137-3.925-.299-7.599-1.055-10.625-2.187-4.54-1.697-6.947-4.015-6.605-6.356 .207-1.404 1.409-2.672 3.479-3.666l.25-.119 .234.147c2.96,1.871 7.587,3.319 12.693,3.973 1.922.246 3.835.37 5.686.37 4.733,0 8.738-.81 10.986-2.221l.28-.176 .272.19c1.92,1.343 2.818,2.845 2.598,4.343-.232,1.589-1.72,2.982-4.302,4.028-2.887,1.168-6.921,1.811-11.359,1.811zm-17.149-11.324c-1.605.818-2.53,1.779-2.678,2.788-.265,1.808 1.966,3.779 5.965,5.274 2.94,1.1 6.52,1.835 10.352,2.126 1.176.089 2.356.135 3.511.135 4.312,0 8.214-.617 10.984-1.737 2.202-.892 3.512-2.045 3.687-3.246 .189-1.279-.883-2.413-1.92-3.189-2.443,1.4-6.503,2.198-11.227,2.198-1.894,0-3.849-.127-5.812-.378-5.113-.654-9.778-2.097-12.862-3.971z" fill="#b3b3b3"/>
  <path d="m1025.758,447.845c-4.506-.979-8.365-2.525-11.058-4.259-2.455.815-4.08,2.007-4.403,3.488-.354,1.612.885,3.283 3.209,4.755 2.906,1.837 7.517,3.357 12.897,4.046 7.241.926 13.813.078 17.001-1.923 1.079-.675 1.773-1.481 1.973-2.396 .312-1.423-.627-2.894-2.453-4.233-3.376,1.763-10.038,2.071-17.166.522z" fill="#bdccd4"/>
  <path d="m1032.152,456.749c-1.894,0-3.849-.127-5.812-.378-5.246-.672-10.021-2.173-13.102-4.119-2.636-1.67-3.822-3.497-3.43-5.285 .352-1.61 1.988-2.943 4.734-3.855l.227-.075 .201.13c2.757,1.774 6.625,3.263 10.894,4.19 2.978.646 6.004.988 8.751.988 3.399,0 6.268-.521 8.077-1.466l.276-.145 .251.185c2.077,1.524 2.992,3.165 2.646,4.744-.224,1.028-.963,1.942-2.196,2.713-2.401,1.508-6.6,2.373-11.517,2.373zm-17.517-12.612c-2.227.778-3.59,1.854-3.85,3.044-.29,1.322.771,2.822 2.988,4.226 2.96,1.871 7.587,3.319 12.693,3.973 1.922.246 3.835.37 5.686.37 4.733,0 8.738-.81 10.986-2.221 .996-.623 1.585-1.322 1.75-2.079 .302-1.373-.877-2.655-2.019-3.542-1.954.929-4.867,1.438-8.255,1.438-2.817,0-5.917-.35-8.964-1.012-4.277-.931-8.177-2.417-11.015-4.197z" fill="#b3b3b3"/>
  <path d="m1026.766,439.462c-4.489-1.247-8.275-3.044-10.831-4.96-2.708.592-4.588,1.676-5.105,3.189-.634,1.858.911,3.99 3.871,5.895 2.692,1.733 6.552,3.279 11.058,4.259 7.128,1.549 13.79,1.241 17.166-.522 1.104-.578 1.858-1.309 2.159-2.184 .518-1.516-.411-3.211-2.371-4.816-3.705,1.101-9.696.876-15.947-.861z" fill="#bdccd4"/>
  <path d="m1034.615,449.345c-2.817,0-5.917-.35-8.964-1.012-4.382-.952-8.367-2.489-11.222-4.327-3.322-2.137-4.77-4.437-4.074-6.476 .562-1.642 2.454-2.857 5.473-3.517l.224-.049 .183.137c2.618,1.963 6.405,3.695 10.665,4.879 3.567.991 7.143,1.516 10.339,1.516 2.052,0 3.896-.227 5.331-.653l.254-.075 .205.168c2.816,2.307 2.929,4.19 2.528,5.364-.337.978-1.144,1.807-2.4,2.466-1.952,1.018-4.984,1.579-8.542,1.579zm-18.794-14.305c-2.495.581-4.096,1.576-4.52,2.813-.524,1.538.812,3.475 3.669,5.312 2.757,1.775 6.625,3.264 10.894,4.191 2.978.646 6.004.988 8.751.988 3.399,0 6.268-.521 8.077-1.466 1.022-.535 1.668-1.176 1.918-1.902 .406-1.19-.309-2.641-2.016-4.101-1.499.411-3.299.62-5.356.62-3.285,0-6.953-.537-10.606-1.553-4.278-1.186-8.106-2.923-10.811-4.902z" fill="#b3b3b3"/>
  <path d="m1028.121,430.734c-3.97-1.455-7.306-3.328-9.63-5.257-3.015.401-5.177,1.412-5.848,2.992-.767,1.802.562,3.986 3.291,6.032 2.556,1.916 6.342,3.713 10.831,4.96 6.251,1.737 12.242,1.962 15.946.86 1.794-.535 3.059-1.375 3.543-2.516 .646-1.524-.195-3.324-2.123-5.08-3.767.925-9.838.269-16.01-1.991z" fill="#bdccd4"/>
  <path d="m1037.238,441.496c-3.285,0-6.953-.537-10.606-1.553-4.377-1.216-8.282-3.006-10.997-5.041-3.066-2.299-4.292-4.652-3.451-6.628 .725-1.707 2.883-2.846 6.241-3.293l.218-.028 .168.14c2.361,1.959 5.729,3.796 9.482,5.172 4.168,1.526 8.433,2.366 12.009,2.366 1.406,0 2.655-.131 3.711-.39l.259-.063 .197.179c2.158,1.967 2.956,3.972 2.246,5.646-.531,1.252-1.83,2.194-3.86,2.8-1.549.459-3.439.693-5.617.693zm-18.895-15.493c-2.825.409-4.683,1.352-5.239,2.662-.633,1.489.508,3.471 3.131,5.437 2.618,1.963 6.405,3.695 10.665,4.879 3.567.991 7.143,1.516 10.339,1.516 2.052,0 3.896-.227 5.331-.653 1.706-.509 2.821-1.28 3.226-2.231 .675-1.592-.759-3.337-1.809-4.338-1.074.237-2.312.357-3.685.357-3.691,0-8.078-.861-12.353-2.427-3.769-1.383-7.17-3.225-9.606-5.202z" fill="#b3b3b3"/>
  <path d="m1031.609,422.445c-4.168-1.809-7.55-4.071-9.713-6.295-3.281.105-5.733.955-6.608,2.562-1.02,1.87.305,4.359 3.203,6.765 2.324,1.929 5.66,3.802 9.63,5.257 6.172,2.26 12.243,2.916 16.011,1.992 1.682-.412 2.906-1.139 3.472-2.177 .782-1.435.181-3.235-1.446-5.079-3.81.333-9.187-.698-14.549-3.025z" fill="#bdccd4"/>
  <path d="m1040.302,433.631c-3.691,0-8.078-.861-12.353-2.427-3.858-1.414-7.331-3.312-9.777-5.342-3.217-2.669-4.428-5.362-3.323-7.389 .929-1.704 3.426-2.707 7.032-2.823l.22-.007 .154.158c2.214,2.275 5.606,4.473 9.554,6.185 5.049,2.192 10.44,3.319 14.306,2.986l.251-.022 .167.189c1.83,2.074 2.366,4.08 1.511,5.649-.623,1.144-1.899,1.959-3.792,2.423-1.135.279-2.464.42-3.95.42zm-18.607-16.973c-3.118.133-5.233.944-5.968,2.294-.854,1.567.269,3.806 3.083,6.141 2.361,1.959 5.729,3.796 9.482,5.172 4.168,1.526 8.433,2.366 12.009,2.366 1.406,0 2.655-.131 3.711-.39 1.586-.389 2.676-1.057 3.151-1.931 .812-1.489-.343-3.278-1.22-4.321-4.002.286-9.443-.875-14.534-3.085-3.971-1.723-7.411-3.936-9.714-6.246z" fill="#b3b3b3"/>
  <path d="m1026.83,407.529c-3.435-.129-6.067.592-7.092,2.201-1.078,1.693-.161,4.035 2.158,6.42 2.163,2.224 5.545,4.486 9.713,6.295 5.361,2.327 10.738,3.357 14.548,3.025 2.331-.205 4.079-.918 4.869-2.158 .846-1.33.453-3.061-.87-4.898-.899-.018-1.86-.113-2.868-.28-9.247-.125-17.122-3.514-20.458-10.605z" fill="#bdccd4"/>
  <path d="m1044.693,426.031c-3.863,0-8.704-1.14-13.283-3.127-4.063-1.764-7.569-4.038-9.872-6.405-2.612-2.686-3.401-5.185-2.222-7.037 1.097-1.722 3.757-2.571 7.532-2.433l.305.012 .129.275c3.023,6.426 10.317,10.187 20.013,10.317 1.069.172 2.01.264 2.871.28l.25.005 .146.203c1.912,2.656 1.537,4.435.886,5.459-.851,1.335-2.665,2.16-5.247,2.388-.479.043-.983.063-1.508.063zm-18.63-18.016c-2.992,0-5.089.705-5.903,1.984-.893,1.401-.129,3.517 2.095,5.803 2.214,2.275 5.606,4.473 9.554,6.185 4.458,1.936 9.154,3.045 12.885,3.045 .494,0 .969-.02 1.421-.059 2.261-.199 3.813-.866 4.49-1.929 .832-1.309.108-2.936-.713-4.137-.838-.029-1.74-.124-2.686-.28-9.88-.128-17.427-3.991-20.694-10.607-.152-.003-.301-.005-.449-.005z" fill="#b3b3b3"/>
  <path d="m1047.816,375.961c-12.537,0-22.697,10.459-22.697,23.36 0,.595.044,1.159.087,1.724 .067.886.172,1.744.338,2.559 .289,1.416.722,2.725 1.286,3.926 3.336,7.091 11.211,10.479 20.458,10.604 .178.003.35.016.528.016 3.937,0 6.627-.585 8.468-1.786 1.346-.879 2.235-2.092 2.825-3.643 .382-1.004.64-2.148.811-3.443 .354-2.68.349-5.986.349-9.956 0-12.902.081-23.361-12.453-23.361z" fill="#0066a6"/>
  <path d="m1274.14,460.932c-2.852,1.066-6.47,1.851-10.488,2.156-5.89.445-11.252-.235-14.721-1.638-2.34,1.428-3.442,4.336-3.64,8.827 5.341,1.65 9.11,5.619 9.11,10.26 0,4.577-3.528,8.502-8.748,10.193 1.021,5.655 5.181,9.882 9.998,9.882 0,0 22.65-2.813 24.521-10.581l1.059-19.046c-.001-5.467-3.085-8.832-7.091-10.053z" fill="#0066a6"/>
  <path d="m1231.76,408.829c-.073.853.031,1.613.367,2.229-.128-.56-.233-1.15-.316-1.78-.02-.146-.034-.3-.051-.449z" fill="#fff"/>
  <path d="m1263.651,463.088c4.019-.306 7.637-1.09 10.488-2.156 4.104-1.534 6.601-3.656 6.285-5.815-.188-1.283-1.358-2.402-3.202-3.287-2.906,1.837-7.515,3.357-12.896,4.046-7.241.926-13.812.078-17.001-1.923-1.69,1.184-2.587,2.516-2.39,3.86 .214,1.459 1.692,2.705 3.995,3.638 3.469,1.402 8.832,2.082 14.721,1.637z" fill="#bdccd4"/>
  <path d="m1260.103,463.724c-4.438,0-8.473-.643-11.359-1.81-2.582-1.046-4.069-2.439-4.303-4.029-.219-1.497.679-2.999 2.598-4.342l.272-.19 .28.176c2.249,1.412 6.254,2.221 10.986,2.221 1.852,0 3.764-.124 5.686-.37 5.105-.653 9.731-2.101 12.692-3.973l.234-.147 .25.119c2.07.994 3.273,2.262 3.48,3.666 .342,2.342-2.065,4.659-6.605,6.356-3.026,1.132-6.7,1.888-10.625,2.187-1.201.09-2.407.136-3.586.136zm-12.751-9.173c-1.037.776-2.109,1.91-1.921,3.189 .176,1.201 1.485,2.354 3.688,3.246 2.77,1.12 6.671,1.737 10.984,1.737 1.154,0 2.335-.046 3.511-.135 3.832-.291 7.411-1.026 10.352-2.126 3.999-1.495 6.229-3.467 5.965-5.274-.147-1.01-1.073-1.971-2.68-2.788-3.085,1.874-7.749,3.316-12.86,3.971-1.964.251-3.919.378-5.812.378-4.725,0-8.784-.798-11.227-2.198z" fill="#b3b3b3"/>
  <path d="m1264.326,455.875c5.382-.688 9.99-2.209 12.896-4.046 2.327-1.472 3.563-3.143 3.211-4.755-.323-1.481-1.949-2.673-4.403-3.488-2.693,1.733-6.552,3.279-11.057,4.259-7.129,1.549-13.792,1.241-17.166-.522-1.827,1.34-2.768,2.811-2.455,4.233 .2.915.895,1.722 1.973,2.396 3.189,2.001 9.76,2.849 17.001,1.923z" fill="#bdccd4"/>
  <path d="m1258.578,456.749c-4.917,0-9.115-.865-11.519-2.373-1.231-.771-1.971-1.684-2.195-2.714-.347-1.578.568-3.219 2.647-4.743l.251-.185 .276.145c1.809.945 4.677,1.466 8.076,1.466 2.748,0 5.774-.342 8.752-.988 4.267-.928 8.135-2.416 10.893-4.191l.201-.129 .227.075c2.746.912 4.383,2.246 4.734,3.856 .392,1.789-.795,3.616-3.432,5.284-3.08,1.946-7.855,3.448-13.101,4.119-1.962.251-3.917.378-5.81.378zm-10.717-8.842c-1.143.887-2.322,2.169-2.021,3.541 .166.758.754,1.457 1.75,2.08 2.249,1.411 6.253,2.221 10.986,2.221 1.851,0 3.764-.124 5.686-.37 5.105-.653 9.731-2.101 12.692-3.973 2.218-1.402 3.279-2.902 2.99-4.226-.26-1.189-1.623-2.266-3.85-3.044-2.84,1.78-6.739,3.267-11.016,4.196-3.047.662-6.146,1.012-8.965,1.012-3.386.001-6.299-.508-8.252-1.437z" fill="#b3b3b3"/>
  <path d="m1264.974,447.845c4.505-.979 8.363-2.525 11.057-4.259 2.96-1.904 4.505-4.036 3.871-5.895-.519-1.514-2.397-2.598-5.106-3.189-2.556,1.916-6.341,3.713-10.83,4.96-6.252,1.737-12.242,1.962-15.946.86-1.96,1.605-2.89,3.301-2.371,4.816 .301.875 1.056,1.605 2.16,2.184 3.373,1.764 10.036,2.072 17.165.523z" fill="#bdccd4"/>
  <path d="m1256.116,449.345c-3.559,0-6.592-.561-8.54-1.579-1.258-.658-2.065-1.487-2.401-2.465-.402-1.174-.29-3.059 2.527-5.365l.205-.168 .254.075c1.436.428 3.279.653 5.33.653 3.196,0 6.771-.524 10.34-1.516 4.259-1.184 8.046-2.916 10.664-4.879l.183-.137 .224.049c3.019.659 4.911,1.875 5.473,3.516 .696,2.04-.751,4.34-4.073,6.478-2.855,1.837-6.841,3.374-11.221,4.326-3.048.662-6.147,1.012-8.965,1.012zm-7.98-8.469c-1.707,1.46-2.423,2.91-2.016,4.101 .25.727.896,1.367 1.919,1.902 1.809.945 4.677,1.466 8.076,1.466h.001c2.747,0 5.773-.342 8.751-.988 4.267-.928 8.135-2.416 10.893-4.191 2.856-1.837 4.193-3.773 3.668-5.312-.424-1.237-2.025-2.232-4.52-2.812-2.706,1.979-6.533,3.716-10.81,4.903-3.653,1.016-7.321,1.553-10.607,1.553-2.056-.002-3.856-.211-5.355-.622z" fill="#b3b3b3"/>
  <path d="m1264 439.46c4.489-1.247 8.274-3.044 10.83-4.96 2.73-2.046 4.059-4.23 3.292-6.032-0.671-1.58-2.833-2.591-5.849-2.992-2.324 1.929-5.659 3.802-9.63 5.257-6.171 2.26-12.242 2.916-16.01 1.992-1.928 1.756-2.771 3.556-2.123 5.08 0.483 1.141 1.749 1.98 3.543 2.516 3.705 1.101 9.695 0.876 15.947-0.861z" fill="#bdccd4"/>
  <path d="m1253.492,441.496c-2.178,0-4.067-.234-5.616-.694-2.031-.606-3.33-1.548-3.86-2.8-.711-1.673.087-3.678 2.246-5.646l.197-.179 .259.063c1.056.259 2.305.39 3.711.39 3.577,0 7.841-.84 12.008-2.366 3.753-1.375 7.12-3.212 9.482-5.172l.168-.14 .218.028c3.359.447 5.518,1.586 6.242,3.293 .841,1.976-.385,4.33-3.452,6.628-2.715,2.035-6.62,3.826-10.996,5.041-3.654,1.017-7.322,1.554-10.607,1.554zm-6.748-8.223c-1.05,1.001-2.484,2.746-1.809,4.338 .403.951 1.519,1.723 3.226,2.231 1.436.427 3.279.653 5.33.653h.001c3.195,0 6.771-.524 10.339-1.516 4.259-1.184 8.046-2.916 10.664-4.879 2.624-1.966 3.766-3.947 3.132-5.437-.557-1.311-2.414-2.253-5.24-2.662-2.438,1.978-5.838,3.82-9.606,5.201-4.273,1.564-8.66,2.427-12.352,2.427-1.372.002-2.611-.118-3.685-.356z" fill="#b3b3b3"/>
  <path d="m1262.608,430.734c3.971-1.455 7.306-3.328 9.63-5.257 2.898-2.405 4.224-4.895 3.204-6.765-.875-1.607-3.326-2.457-6.608-2.562-2.163,2.224-5.546,4.486-9.713,6.295-5.361,2.327-10.738,3.357-14.548,3.025-1.627,1.844-2.229,3.645-1.447,5.079 .566,1.038 1.791,1.765 3.473,2.177 3.767.924 9.839.268 16.009-1.992z" fill="#bdccd4"/>
  <path d="m1250.43,433.631c-1.488,0-2.816-.141-3.95-.419-1.893-.464-3.168-1.278-3.792-2.423-.856-1.569-.319-3.575 1.511-5.649l.167-.189 .251.022c3.866.334 9.257-.794 14.306-2.986 3.948-1.713 7.341-3.909 9.554-6.185l.154-.158 .22.007c3.606.116 6.104,1.119 7.032,2.823 1.104,2.026-.107,4.719-3.324,7.389-2.447,2.031-5.92,3.928-9.777,5.342-4.276,1.564-8.662,2.426-12.352,2.426zm-5.644-7.642c-.878,1.043-2.033,2.833-1.221,4.321 .477.874 1.566,1.542 3.152,1.931 1.056.259 2.305.39 3.711.39 3.576,0 7.841-.84 12.008-2.366 3.753-1.375 7.12-3.212 9.482-5.172 2.814-2.336 3.938-4.573 3.084-6.141-.734-1.35-2.85-2.161-5.968-2.294-2.303,2.309-5.742,4.521-9.715,6.246-5.09,2.209-10.527,3.369-14.533,3.085z" fill="#b3b3b3"/>
  <path d="m1259.121,422.445c4.167-1.809 7.55-4.071 9.713-6.295 2.319-2.385 3.236-4.727 2.157-6.42-1.024-1.609-3.656-2.33-7.092-2.201-3.335,7.091-11.21,10.479-20.457,10.604-1.009.167-1.969.263-2.868.28-1.324,1.838-1.716,3.568-.87,4.898 .791,1.24 2.538,1.953 4.869,2.158 3.81.334 9.187-.697 14.548-3.024z" fill="#bdccd4"/>
  <path d="m1246.038,426.031c-.525,0-1.029-.021-1.508-.062-2.582-.228-4.396-1.053-5.248-2.388-.651-1.025-1.026-2.804.887-5.459l.146-.203 .25-.005c.86-.017 1.801-.108 2.796-.273 9.771-.138 17.064-3.898 20.087-10.324l.129-.275 .305-.012c3.791-.141 6.437.711 7.532,2.433 1.18,1.852.392,4.352-2.221,7.037-2.302,2.366-5.808,4.641-9.872,6.405-4.58,1.987-9.422,3.126-13.283,3.126zm-5.199-7.124c-.821,1.2-1.546,2.827-.713,4.137 .678,1.062 2.23,1.729 4.491,1.929 3.857.334 9.256-.794 14.305-2.986 3.948-1.713 7.341-3.909 9.554-6.185 2.224-2.286 2.987-4.401 2.094-5.803-.854-1.343-3.123-2.046-6.352-1.979-3.267,6.616-10.814,10.479-20.769,10.614-.878.15-1.773.244-2.61.273z" fill="#b3b3b3"/>
  <path d="m1263.899,407.529c.565-1.201.999-2.51 1.287-3.926 .166-.814.271-1.673.338-2.559 .042-.564.086-1.129.086-1.724 0-12.901-10.159-23.36-22.696-23.36-12.534,0-12.453,10.459-12.453,23.36 0,3.755 0,6.908.299,9.508 .018.148.031.303.051.448 .083.63.188,1.221.316,1.78 .136.591.297,1.147.493,1.663 .591,1.551 1.479,2.764 2.825,3.643 1.842,1.201 4.532,1.786 8.469,1.786 .179,0 .351-.013.528-.016 9.247-.123 17.122-3.512 20.457-10.603z" fill="#0066a6"/>
 </g>
 <g transform="translate(-71.75,-238)">
  <path d="m885.461,315.467c-.686-2.269-1.652-4.577-3.429-6.413-.429-.447-.954-.892-1.44-1.231-.477-.354-.972-.684-1.473-1.005-1.004-.638-2.04-1.228-3.11-1.755-2.128-1.034-4.424-1.813-6.881-1.752-.011-.094-.021-.187-.032-.281-.422-3.729-.595-6.641-2.281-6.502s-2.71,3.275-2.288,7.006 2.124,6.642 3.81,6.502c1.493-.122 1.271-2.585.907-5.727 1.993.808 3.967,1.641 5.892,2.562 1.007.483 1.987,1.044 2.939,1.636 .472.302.945.633 1.408.952 .469.31.835.669 1.221,1.042 1.486,1.473 2.565,3.583 3.307,5.685l.28.814h1.538c-.107-.532-.225-1.058-.368-1.533z"/>
  <path d="m909.215,316.187c.741-2.102 1.819-4.338 3.306-5.81 .386-.373.752-.67 1.222-.98 .462-.318.936-.619 1.407-.921 .952-.591 1.932-1.137 2.939-1.621 1.925-.923 3.897-1.748 5.892-2.555-.362,3.146-.587,5.612.907,5.735 1.686.14 3.387-2.772 3.811-6.502s-.604-6.867-2.289-7.006-1.859,2.773-2.283,6.502l-.032.285c-2.457-.061-4.752.722-6.88,1.756-1.069.527-2.105,1.125-3.11,1.763-.5.321-.995.667-1.472,1.021-.486.34-1.012.815-1.44,1.263-1.775,1.836-2.743,4.207-3.428,6.476-.135.449-.239.929-.342,1.407h1.513c.088-.267.182-.537.279-.813z"/>
  <path d="m925 421.03v-15.029h-57v15.017c0.071 3e-3 0 0.011 0 0.013v62.97h57v-62.971z" fill="#fac8d0"/>
  <path d="m868,421.017-.092-.002c-13.562,0-29.127,1.108-38.63,8.124-11.478,8.473-15.104,24.127-15.227,38.114-4.774.266-8.552,3.709-8.552,7.86 0,4.324 4.097,7.887 9.151,7.887h22.572c0-1 .436-16.603.982-21.597 1.768-16.129 11.146-16.743 27.177-16.743 .867,0 1.617.043 2.617.111v-23.742c.002-.002.073-.009.002-.012z" fill="#ff7bac"/>
  <path d="m928.919,444.66c16.034,0 26.062.614 27.829,16.743 .551,4.994 1.637,20.597 1.637,21.597h22.572c5.055,0 9.15-3.562 9.15-7.887 0-4.151-3.777-7.595-8.551-7.86-.123-13.987-3.749-29.642-15.227-38.114-9.504-7.016-26.373-8.124-39.935-8.124l-1.396.015v23.742c2.002-.069 3.057-.112 3.921-.112z" fill="#ff7bac"/>
  <path d="m853.92 594h95.152c6.828 0 12.405-4.854 12.878-11h-120.91c0.473 6.146 6.05 11 12.878 11z" fill="#666"/>
  <path d="m841.05 583h133.63l12.098-8.164-34.364-90.836h-109.19l-29.297 90.836 13.607 8.164z" fill="#d4145a"/>
  <path d="m939.571,406c12.193-5 21.429-14.332 25.429-24.764v-38.638c-4-10.43-13.236-25.598-25.429-25.598h-30.637-1.513-21.594-1.538-30.875c-12.191,0-22.414,15.168-26.414,25.599v38.638c4,10.431 14.223,19.763 26.415,24.763h14.585 57 14.571zm-34.268-49.847c.35-3.302 1.857-5.882 3.369-5.766s2.451,2.89 2.1,6.19-1.857,5.883-3.369,5.766-2.45-2.888-2.1-6.19zm-25.964-5.765c1.512-.116 3.02,2.464 3.37,5.766s-.59,6.073-2.1,6.19-3.02-2.465-3.37-5.766 .59-6.073 2.1-6.19zm-4.356,24.882c1.572.846 3.27,1.361 5.021,1.704 1.746.356 3.531.548 5.321.692 3.588.262 7.206.257 10.848.242 3.653-.013 7.266.04 10.844-.243 3.572-.277 7.106-.898 10.531-2.073l.293.693c-3.297,1.686-6.96,2.693-10.643,3.14-3.687.467-7.386.486-11.024.468-3.652-.012-7.343-.08-11.019-.55-1.837-.23-3.672-.562-5.469-1.084-1.779-.54-3.581-1.228-5.095-2.347l.392-.642z" fill="#ff7bac"/>
  <path d="m885.156,379.343c3.676.47 7.366.538 11.019.55 3.639.019 7.338-.001 11.024-.468 3.683-.446 7.346-1.454 10.643-3.14l-.293-.693c-3.425,1.175-6.959,1.796-10.531,2.073-3.578.283-7.19.23-10.844.243-3.642.015-7.26.02-10.848-.242-1.79-.145-3.575-.336-5.321-.692-1.752-.343-3.449-.858-5.021-1.704l-.391.643c1.514,1.119 3.315,1.807 5.095,2.347 1.796.52 3.631.852 5.468,1.083z"/>
  <path d="m880.61 362.34c1.51-0.117 2.448-2.889 2.1-6.19s-1.858-5.882-3.37-5.766-2.45 2.89-2.1 6.19 1.86 5.883 3.37 5.766z" fill="#fff"/>
  <path d="m907.402,362.344c1.512.117 3.02-2.465 3.369-5.766s-.589-6.073-2.1-6.19-3.02,2.464-3.369,5.766 .591,6.073 2.1,6.19z" fill="#fff"/>
 </g>
 <g transform="translate(-71.75,-238)">
  <path d="m1381.5,448.508c0-5.527 6.156-10.008 13.75-10.008s13.75,4.48 13.75,10.008c0,.204-.025.403-.042.604 1.324.02 2.68.043 4.042.07v-21.066c1-1.076-7.809-13.115-18.164-13.115s-17.836,12.655-17.836,13.99v20.657c1.539-.07 3.074-.136 4.565-.195-.04-.311-.065-.626-.065-.945z" fill="#ff1d25"/>
  <path d="m1395.25,438.5c-7.594,0-13.75,4.48-13.75,10.008 0,.319.025.634.065.945 7.346-.295 13.59-.453 13.59-.453s6.364,0 13.803.111c.017-.2.042-.399.042-.604 0-5.527-6.156-10.007-13.75-10.007z"/>
  <path d="m1328.723,584.295c.409,2.394 1.463,6.871 3.777,8.205 3.501,2.018 6.968,1.883 10.499,2 4.114.137 10.502-.5 13.501-2 2.491-1.246 3.601-7.136 3.906-9.1-7.155,1.314-15.113,2.267-16.664,2.267-1.203,0-10.746-.68-15.019-1.372z" fill="#0066a6"/>
  <path d="m1364.417,561.477c8.331.182 18.562.398 25.295.523h12.711c6.472-.14 16.818-.397 25.399-.616 5.423-6.369 12.569-11.835 19.67-12.266 3.748-9.205 8.634-21.189 10.663-26.118 3.5-8.5 3.463-8.901 3.5-14 .038-5.166-18-42-19.5-46.485-1.5-4.485-4.5-11.515-12-12.515-3.251-.434-10.258-.679-17.155-.818-1.362-.027-2.718-.051-4.042-.07-7.438-.112-13.803-.112-13.803-.112s-6.244.158-13.59.453l-4.565.195c-6.797.312-13.643.73-16.833,1.239-7.473,1.189-10.293,8.292-11.679,12.814s-18.484,41.801-18.315,46.965c.167,5.096.14,5.498 3.854,13.906 2.038,4.612 6.782,15.171 10.653,23.77 7.18.962 14.396,6.732 19.737,13.135zm59.583-70.063c0,8.514-3.806,15.415-8.5,15.415s-8.5-6.901-8.5-15.415 3.806-15.414 8.5-15.414 8.5,6.901 8.5,15.414zm-44.5-15.414c4.694,0 8.5,6.901 8.5,15.414s-3.806,15.415-8.5,15.415-8.5-6.901-8.5-15.415 3.806-15.414 8.5-15.414zm-14.405,54.839c4.524,2.397 9.402,3.952 14.354,5.052 4.957,1.097 10.016,1.697 15.081,1.906 5.069.196 10.146-.046 15.167-.703 5.013-.688 9.988-1.799 14.718-3.76l.17.332c-4.441,2.686-9.504,4.275-14.61,5.191-5.123.925-10.349,1.139-15.531.89-5.184-.258-10.346-1.031-15.358-2.378-4.995-1.365-9.89-3.319-14.18-6.208l.189-.322z" fill="#ffec9d"/>
  <path d="m1388 491.42a8.5 15.415 0 1 0 -17 0 8.5 15.415 0 1 0 17 0" fill="#fff"/>
  <path d="m1424 491.41a8.5 15.415 0 1 0 -17 0 8.5 15.415 0 1 0 17 0" fill="#fff"/>
  <path d="m1394.443,539.747c5.183.249 10.408.035 15.531-.89 5.106-.916 10.169-2.506 14.61-5.191l-.17-.332c-4.729,1.961-9.705,3.071-14.718,3.76-5.021.657-10.098.899-15.167.703-5.065-.209-10.124-.81-15.081-1.906-4.952-1.1-9.83-2.654-14.354-5.052l-.189.322c4.29,2.889 9.185,4.843 14.18,6.208 5.013,1.347 10.175,2.12 15.358,2.378z"/>
  <path d="m1427.3 562h-62.457c5.975 7.342 9.438 15.354 7.515 17.829-0.044 0.057-0.111 0.114-0.174 0.171h46.359c-0.435-3.648 3.17-11.242 8.757-18z" fill="#ff1d25"/>
  <path d="m1364.85,562-.433-.523c-5.341-6.402-12.557-12.173-19.736-13.134-.538-.072-1.075-.121-1.612-.138-.336-.012-1.743,0-2.126,0-11.873,0-19.609,8.604-19.609,19.217 0,3.651-.344,13.698 5.509,16.438 .303.142.977.288 1.881.436 4.273.692 13.816,1.372 15.02,1.372 1.551,0 9.509-.952 16.664-2.267 5.496-1.009 10.507-2.23 11.784-3.4 .062-.057.13-.114.174-.171 1.921-2.476-1.542-10.488-7.516-17.83z" fill="#f15a24"/>
  <path d="m1431.166,584.739c.409,2.215 1.67,7.854 4.099,8.992 3.036,1.424 9.438,1.897 13.548,1.656 3.526-.207 6.996-.16 10.444-2.266 2.216-1.353 3.164-5.771 3.533-8.292-4.271.8-13.746,1.717-14.945,1.746-1.548.04-9.502-.707-16.679-1.836z" fill="#0066a6"/>
  <path d="m1469.784,567.769c-.269-10.609-8.222-19.014-20.091-18.712-.383.01-1.789.033-2.125.054l-.076.008c-7.101.431-14.247,5.896-19.67,12.266-.174.204-.345.41-.516.616-5.587,6.758-9.191,14.352-8.757,18 .071.598.237,1.103.535,1.467 .981,1.198 6.277,2.359 12.081,3.272 7.177,1.129 15.131,1.876 16.679,1.837 1.199-.029 10.674-.946 14.945-1.746 .919-.172 1.601-.338 1.904-.489 5.783-2.887 5.184-12.923 5.091-16.573z" fill="#f15a24"/>
 </g>
</svg>
